<svg width="100" height="100" viewBox="0 0 100 100" fill="none" xmlns="http://www.w3.org/2000/svg">
<path d="M56.1269 46.6534C57.1717 47.8043 58.1052 49.3106 57.7074 49.7083C57.3096 50.1061 56.0898 49.3848 55.1563 48.4514C54.2229 47.5179 51.9954 57.4358 51.7779 57.9396C51.6188 58.3162 49.02 61.2862 47.6623 64.1184C47.2115 65.0624 47.2751 67.9052 47.1054 68.0749C46.4212 68.7591 45.562 68.6848 43.6898 67.0301C41.823 65.3754 40.8524 75.2136 43.0799 76.7676C46.8879 79.4247 54.5093 89.9949 64.5703 89.9949C76.2118 89.9949 86.9942 77.8495 86.9942 68.9341C86.9942 60.024 84.3794 56.6402 84.5492 49.1674C84.6924 42.8401 89.2907 39.8223 89.2907 36.6614C89.2907 34.0042 85.3394 33.3572 84.0453 33.3572C81.7435 33.3572 75.8512 36.306 75.8512 44.0653C75.8512 47.083 74.9867 49.8144 71.9 49.8144C68.8132 49.8144 65.3606 45.5715 63.2762 42.2673" fill="url(#paint0_linear_121_2534)"/>
<path d="M89.3014 36.6615C89.3014 35.2136 88.1345 34.365 86.8564 33.8876C88.3838 38.9579 80.6246 39.1807 80.6246 56.4653C80.6246 73.7499 70.5635 78.7778 66.3949 79.6423C62.2262 80.5068 54.8806 80.7561 49.2906 73.8931C47.5722 71.7876 45.2439 69.4964 42.661 67.3325C41.5685 69.1623 41.3351 75.5425 43.0906 76.7677C46.8986 79.4248 54.52 89.995 64.581 89.995C76.2226 89.995 87.0049 77.8497 87.0049 68.9342C87.0049 60.0241 84.3902 56.6403 84.5599 49.1675C84.6978 42.8455 89.3014 39.8277 89.3014 36.6615Z" fill="url(#paint1_linear_121_2534)"/>
<path d="M43.6951 67.0296C41.8282 65.3749 37.405 60.6705 34.5304 58.3688C31.6558 56.067 29.1419 56.0988 27.4129 58.6339C25.6892 61.1691 30.7171 65.6295 31.868 66.7804C33.6288 68.5412 40.8524 75.2132 43.0799 76.7724" fill="url(#paint2_linear_121_2534)"/>
<path d="M51.778 57.9394C51.5606 58.4433 50.0968 58.788 47.1798 55.6164C44.9522 53.1926 38.9856 46.2237 35.464 43.0574C31.9424 39.8964 29.211 38.6023 26.9092 40.2517C24.6074 41.9012 25.9174 45.3485 28.4897 48.2284C31.6719 51.7872 35.3314 55.4149 38.8371 58.8994C41.5791 61.6255 47.7844 67.3799 47.1002 68.0641" fill="url(#paint3_linear_121_2534)"/>
<path d="M63.2818 42.2673C61.1974 38.9631 52.6426 28.324 50.5583 25.3062C48.474 22.2884 45.6683 22.2884 43.7325 23.6515C41.7914 25.0145 41.2186 27.7459 45.5835 33.5534C48.3361 37.2129 50.6325 40.5861 56.1324 46.6534L62.5286 46.2079L63.2818 42.2673Z" fill="url(#paint4_linear_121_2534)"/>
<path d="M55.1563 48.4511C54.2229 47.5176 45.9598 37.7218 44.0876 35.6215C40.5819 31.6862 36.1427 23.2587 30.8444 27.0137C28.06 28.9867 29.5662 31.8453 30.3618 32.9962C31.152 34.1471 41.4305 46.0061 42.4382 47.0138C43.4459 48.0215 51.9954 57.4354 51.7832 57.9393" fill="url(#paint5_linear_121_2534)"/>
<path d="M38.8421 58.91C41.4303 61.4823 47.0999 66.7488 47.1583 67.9103C47.975 66.6321 46.4794 62.8453 44.8989 61.5141C35.7713 53.8238 26.946 41.4292 25.8269 41.8004C25.3443 43.6037 26.5642 46.0805 28.4947 48.2391C31.6716 51.7925 35.3311 55.4255 38.8421 58.91Z" fill="url(#paint6_linear_121_2534)"/>
<path d="M56.1267 46.653C57.1291 47.7562 58.0254 49.1935 57.7443 49.6549C61.0803 46.9712 54.0264 39.0953 50.0328 34.3644C46.9408 30.7049 46.1028 26.0483 43.8859 23.5503C43.8328 23.5821 43.7798 23.6192 43.7268 23.6564C41.7856 25.0194 41.2128 27.7508 45.5777 33.5583C48.3356 37.2178 50.6268 40.5856 56.1267 46.653Z" fill="url(#paint7_linear_121_2534)"/>
<path d="M42.4382 47.0136C43.4459 48.0213 51.9954 57.4353 51.7832 57.9391C54.4245 54.3804 44.1831 43.9216 39.2242 38.6391C34.9229 34.0568 34.1857 30.0472 29.9905 27.7931C28.4312 29.6759 29.6723 31.9883 30.3618 32.996C31.152 34.1469 41.4305 46.0059 42.4382 47.0136Z" fill="url(#paint8_linear_121_2534)"/>
<path d="M51.587 58.146C51.2847 58.3316 50.6694 58.3475 49.7201 57.7959C50.4255 58.374 51.0831 58.5915 51.587 58.146Z" fill="url(#paint9_linear_121_2534)"/>
<path d="M33.1304 77.0219C33.0668 77.0219 33.0031 77.0113 32.9395 76.9953C26.3788 74.9959 19.272 67.8253 17.7286 61.6519C17.6437 61.3071 17.8506 60.9518 18.2006 60.8669C18.5454 60.7821 18.9007 60.9889 18.9855 61.3389C20.4069 67.0298 27.238 73.9033 33.316 75.7596C33.6555 75.8657 33.8517 76.2263 33.7456 76.5657C33.6608 76.8415 33.4062 77.0219 33.1304 77.0219Z" fill="#393C47"/>
<path d="M36.2542 85.1629C36.2065 85.1629 36.1588 85.1576 36.1057 85.147C30.6748 83.8847 24.3687 79.8275 18.7999 74.02C13.5917 68.589 10.2186 62.8133 10.0011 58.9469C9.97993 58.5916 10.2557 58.284 10.6111 58.2628C10.9664 58.2416 11.274 58.5174 11.2952 58.8727C11.4915 62.389 14.8063 67.9844 19.7334 73.1236C25.1325 78.7561 31.2105 82.6755 36.4027 83.8848C36.7528 83.9643 36.9649 84.3144 36.8854 84.6591C36.8164 84.9614 36.5512 85.1629 36.2542 85.1629Z" fill="#393C47"/>
<path d="M64.0718 28.5414C63.7854 28.5414 63.5256 28.3505 63.446 28.0588C62.5338 24.6061 58.4022 19.6472 54.6366 18.6713C54.2919 18.5812 54.085 18.2311 54.1699 17.8811C54.2601 17.5363 54.6101 17.3295 54.9602 17.4144C59.2031 18.5122 63.674 23.8583 64.6977 27.7247C64.7878 28.0694 64.581 28.4247 64.2363 28.5149C64.1832 28.5361 64.1249 28.5414 64.0718 28.5414Z" fill="#393C47"/>
<path d="M72.2289 29.6923C71.9425 29.6923 71.6774 29.4961 71.6031 29.2044C69.174 19.6578 60.1101 12.2115 54.939 11.2833C54.589 11.2197 54.3556 10.8856 54.4193 10.5302C54.4829 10.1802 54.8171 9.94682 55.1724 10.0105C60.8155 11.0235 70.2719 18.6978 72.8654 28.8862C72.9555 29.2309 72.7434 29.5862 72.3987 29.6711C72.335 29.687 72.282 29.6923 72.2289 29.6923Z" fill="#393C47"/>
<path d="M84.6661 34.4339C86.8618 34.0414 87.2489 34.2907 86.8565 33.8876C85.7851 33.4898 84.6449 33.3519 84.0509 33.3519C81.7491 33.3519 75.8567 36.3008 75.8567 44.06C75.8567 47.0778 74.9922 49.8092 71.9055 49.8092C70.6856 49.8092 69.4128 49.1462 68.1876 48.1491C73.6133 54.1582 77.8721 48.4992 78.5191 44.6169C79.1662 40.7346 78.2274 35.5954 84.6661 34.4339Z" fill="url(#paint10_radial_121_2534)"/>
<path d="M43.0641 24.24C41.7223 25.7569 41.7647 28.4829 45.578 33.5532C48.3306 37.2128 50.6271 40.5859 56.127 46.6533C57.1718 47.8042 58.1053 49.3104 57.7075 49.7082C58.625 43.418 49.6778 37.2393 46.7661 32.4925C44.4643 28.7375 44.0028 26.5206 43.0641 24.24Z" fill="url(#paint11_linear_121_2534)"/>
<path d="M42.4385 47.0139C43.4462 48.0216 51.9957 57.4356 51.7835 57.9395C53.6716 56.5923 52.3829 54.4974 49.4658 51.5804C43.4886 45.6032 35.1672 37.5681 31.8206 30.9545C31.5024 30.3287 30.9189 29.8672 30.2242 29.7771C28.4209 29.5437 29.7575 32.1213 30.3621 33.0017C31.1523 34.1473 41.4308 46.0063 42.4385 47.0139Z" fill="url(#paint12_linear_121_2534)"/>
<path d="M28.4949 48.2335C31.6771 51.7923 35.3366 55.42 38.8423 58.9045C41.5843 61.6306 47.7896 67.385 47.1055 68.0692C50.9506 64.8339 33.0879 53.1288 25.8219 41.7949C25.3445 43.5981 26.5644 46.0749 28.4949 48.2335Z" fill="url(#paint13_linear_121_2534)"/>
<path d="M46.3153 68.7216C46.6812 68.5784 46.8722 68.4087 46.9305 68.223C46.2728 68.7322 45.4031 68.5466 43.69 67.0297C41.8231 65.375 37.3998 60.6706 34.5253 58.3688C33.263 57.3558 32.0697 56.799 30.9824 56.7035C32.5417 57.6741 31.8204 58.0294 35.2837 60.6865C37.14 62.1079 43.9446 69.655 46.3153 68.7216Z" fill="url(#paint14_linear_121_2534)"/>
<path d="M41.7912 51.4687C44.3158 54.5395 49.2376 59.6151 51.4492 58.2097C50.8393 58.4165 49.4497 58.0824 47.1797 55.6109C44.9522 53.1871 38.9856 46.2181 35.464 43.0518C32.6106 40.4902 30.277 39.1536 28.2722 39.6204C34.1168 41.5509 39.3993 48.5623 41.7912 51.4687Z" fill="url(#paint15_linear_121_2534)"/>
<path d="M44.5226 38.2413C48.5534 42.6222 54.5253 51.3096 57.559 49.7927C57.0604 49.9465 55.9944 49.2836 55.1617 48.4509C54.2283 47.5174 45.9652 37.7216 44.093 35.6213C41.6639 32.8953 38.7894 28.0159 35.4905 26.5203C38.8159 29.1403 41.2555 34.6932 44.5226 38.2413Z" fill="url(#paint16_linear_121_2534)"/>
<path d="M68.1875 48.154C66.3047 46.616 64.5439 44.2718 63.2816 42.267C61.1973 38.9628 52.6425 28.3237 50.5581 25.3059C49.9217 24.3884 49.2216 23.7466 48.495 23.3436C49.4656 24.7384 50.0118 26.7273 52.2076 29.1882C55.7292 33.1394 60.3274 40.2569 61.9132 42.7019C63.4937 45.1416 66.0448 50.2967 68.1875 48.154Z" fill="url(#paint17_linear_121_2534)"/>
<path d="M79.7177 83.2326C78.4077 80.0504 76.4984 78.1145 73.7352 79.9337C66.1987 84.8926 57.5272 83.2219 46.66 74.4338C36.9649 66.595 31.953 60.989 27.238 58.963C26.1083 61.5406 30.7703 65.6774 31.8734 66.7806C33.6342 68.5414 40.8578 75.2134 43.0853 76.7727C46.8934 79.4298 54.5147 90 64.5758 90C70.1923 89.9947 75.6127 87.1626 79.7177 83.2326Z" fill="url(#paint18_linear_121_2534)"/>
<path d="M84.5545 49.167C84.6977 42.8398 89.2959 39.822 89.2959 36.661C89.2959 35.7276 88.8133 35.0487 88.1239 34.5501C88.9671 37.011 86.9623 39.1962 83.9764 42.914C80.7412 46.9395 80.0252 53.1925 82.2527 59.4455C84.4802 65.6985 81.6799 74.3223 77.1506 77.0537C72.6213 79.785 66.6069 91.7872 49.3807 78.2257C49.3754 78.2204 49.3753 78.2205 49.37 78.2152C48.3199 77.2393 47.2804 76.3748 46.225 75.7224C38.9484 71.2143 34.8062 67.1623 31.6718 63.7574C31.0565 63.0891 29.4018 60.5168 27.4288 61.3654C28.4153 63.5983 31.0724 65.9796 31.868 66.7805C33.6288 68.5413 40.8524 75.2133 43.0799 76.7725C43.3716 76.9741 43.6845 77.2234 44.0187 77.5098C44.1035 77.584 44.1937 77.6583 44.2838 77.7378C44.3051 77.759 44.3316 77.7802 44.3528 77.8015C44.4111 77.8545 44.4642 77.9022 44.5225 77.9553C44.5331 77.9659 44.549 77.9765 44.5596 77.9924C46.819 80.0449 49.9322 83.4445 53.7456 86.1017C53.7456 86.1017 53.7509 86.1017 53.7509 86.107C54.085 86.3403 54.4244 86.5684 54.7692 86.7911C54.7745 86.7965 54.7798 86.7965 54.7851 86.8018C55.1298 87.0192 55.4746 87.2314 55.8299 87.4329C55.8352 87.4329 55.8352 87.4382 55.8405 87.4382C58.4817 88.9551 61.404 89.9999 64.565 89.9999C76.2065 89.9999 86.9889 77.8545 86.9889 68.9391C86.9995 60.0236 84.3848 56.6399 84.5545 49.167Z" fill="url(#paint19_radial_121_2534)"/>
<defs>
<linearGradient id="paint0_linear_121_2534" x1="81.3399" y1="92.2981" x2="71.7447" y2="69.818" gradientUnits="userSpaceOnUse">
<stop offset="0.00132565" stop-color="#F0C492"/>
<stop offset="1" stop-color="#F8DBBA"/>
</linearGradient>
<linearGradient id="paint1_linear_121_2534" x1="88.2346" y1="82.6096" x2="68.1095" y2="58.6031" gradientUnits="userSpaceOnUse">
<stop offset="0.00132565" stop-color="#F0C492"/>
<stop offset="1" stop-color="#F8DBBA"/>
</linearGradient>
<linearGradient id="paint2_linear_121_2534" x1="29.4569" y1="60.6799" x2="41.3163" y2="69.4128" gradientUnits="userSpaceOnUse">
<stop offset="0.00132565" stop-color="#F0C492"/>
<stop offset="1" stop-color="#F8DBBA"/>
</linearGradient>
<linearGradient id="paint3_linear_121_2534" x1="25.1389" y1="37.566" x2="45.9468" y2="59.3443" gradientUnits="userSpaceOnUse">
<stop offset="0.00132565" stop-color="#F0C492"/>
<stop offset="1" stop-color="#F8DBBA"/>
</linearGradient>
<linearGradient id="paint4_linear_121_2534" x1="47.6138" y1="27.2913" x2="59.6889" y2="46.2665" gradientUnits="userSpaceOnUse">
<stop offset="0.00132565" stop-color="#F0C492"/>
<stop offset="1" stop-color="#F8DBBA"/>
</linearGradient>
<linearGradient id="paint5_linear_121_2534" x1="35.1489" y1="30.4432" x2="51.5365" y2="52.5809" gradientUnits="userSpaceOnUse">
<stop offset="0.00132565" stop-color="#F0C492"/>
<stop offset="1" stop-color="#F8DBBA"/>
</linearGradient>
<linearGradient id="paint6_linear_121_2534" x1="41.1122" y1="50.4986" x2="34.2338" y2="56.9782" gradientUnits="userSpaceOnUse">
<stop stop-color="#F0C492" stop-opacity="0"/>
<stop offset="1" stop-color="#F0C492"/>
</linearGradient>
<linearGradient id="paint7_linear_121_2534" x1="54.6386" y1="33.1144" x2="44.2885" y2="42.4583" gradientUnits="userSpaceOnUse">
<stop stop-color="#F0C492" stop-opacity="0"/>
<stop offset="1" stop-color="#F0C492"/>
</linearGradient>
<linearGradient id="paint8_linear_121_2534" x1="45.1184" y1="39.7712" x2="30.887" y2="50.1752" gradientUnits="userSpaceOnUse">
<stop stop-color="#F0C492" stop-opacity="0"/>
<stop offset="1" stop-color="#F0C492"/>
</linearGradient>
<linearGradient id="paint9_linear_121_2534" x1="55.7198" y1="54.2726" x2="41.4883" y2="64.6766" gradientUnits="userSpaceOnUse">
<stop stop-color="#F0C492" stop-opacity="0"/>
<stop offset="1" stop-color="#F0C492"/>
</linearGradient>
<radialGradient id="paint10_radial_121_2534" cx="0" cy="0" r="1" gradientUnits="userSpaceOnUse" gradientTransform="translate(74.3627 37.37) scale(17.0814 17.0814)">
<stop stop-color="#F0C492" stop-opacity="0"/>
<stop offset="1" stop-color="#F0C492"/>
</radialGradient>
<linearGradient id="paint11_linear_121_2534" x1="56.5329" y1="31.2796" x2="47.6923" y2="39.4734" gradientUnits="userSpaceOnUse">
<stop offset="0.3118" stop-color="#F0C492" stop-opacity="0"/>
<stop offset="1" stop-color="#E6AF74"/>
</linearGradient>
<linearGradient id="paint12_linear_121_2534" x1="49.7634" y1="35.7208" x2="38.1195" y2="46.2146" gradientUnits="userSpaceOnUse">
<stop offset="0.3118" stop-color="#F0C492" stop-opacity="0"/>
<stop offset="1" stop-color="#E6AF74"/>
</linearGradient>
<linearGradient id="paint13_linear_121_2534" x1="45.828" y1="47.0707" x2="31.4529" y2="59.1458" gradientUnits="userSpaceOnUse">
<stop offset="0.3118" stop-color="#F0C492" stop-opacity="0"/>
<stop offset="1" stop-color="#E6AF74"/>
</linearGradient>
<linearGradient id="paint14_linear_121_2534" x1="30.1427" y1="55.8426" x2="46.8537" y2="69.4271" gradientUnits="userSpaceOnUse">
<stop offset="0.3118" stop-color="#F0C492" stop-opacity="0"/>
<stop offset="1" stop-color="#E6AF74"/>
</linearGradient>
<linearGradient id="paint15_linear_121_2534" x1="33.3411" y1="39.0043" x2="46.3866" y2="58.842" gradientUnits="userSpaceOnUse">
<stop offset="0.3118" stop-color="#F0C492" stop-opacity="0"/>
<stop offset="1" stop-color="#E6AF74"/>
</linearGradient>
<linearGradient id="paint16_linear_121_2534" x1="43.5596" y1="40.4214" x2="47.2252" y2="37.6182" gradientUnits="userSpaceOnUse">
<stop offset="0.3118" stop-color="#F0C492" stop-opacity="0"/>
<stop offset="1" stop-color="#E6AF74"/>
</linearGradient>
<linearGradient id="paint17_linear_121_2534" x1="58.6945" y1="33.8736" x2="51.9382" y2="69.955" gradientUnits="userSpaceOnUse">
<stop offset="0.00132565" stop-color="#F0C492"/>
<stop offset="1" stop-color="#F8DBBA"/>
</linearGradient>
<linearGradient id="paint18_linear_121_2534" x1="50.4913" y1="73.8465" x2="43.16" y2="80.5848" gradientUnits="userSpaceOnUse">
<stop offset="0.3118" stop-color="#F0C492" stop-opacity="0"/>
<stop offset="1" stop-color="#F0C492"/>
</linearGradient>
<radialGradient id="paint19_radial_121_2534" cx="0" cy="0" r="1" gradientUnits="userSpaceOnUse" gradientTransform="translate(56.8559 56.9674) rotate(48.1397) scale(49.5198 44.9516)">
<stop offset="0.6134" stop-color="#F0C492" stop-opacity="0"/>
<stop offset="1" stop-color="#E6AF74"/>
</radialGradient>
</defs>
</svg>
