<svg width="250" height="260" viewBox="0 0 250 260" fill="none" xmlns="http://www.w3.org/2000/svg">
<g clip-path="url(#clip0_121_2596)">
<path d="M71.3 119.8L100.3 132.2L111.2 150.8L232.9 205.3L233.2 223.3L71.3 154.1V119.8Z" fill="#E7E9EE"/>
<path d="M223.2 208.7L84.7 146.8C84.2 146.6 83.6 146.6 83.1 146.8L15.5 176.5C14.8 176.8 14.3 177.5 14.3 178.3C14.3 179.1 14.8 179.8 15.5 180.1L159.1 243.3C159.4 243.4 159.6 243.5 159.9 243.5C160.2 243.5 160.5 243.4 160.8 243.3L223.3 212.3C224 212 224.4 211.2 224.4 210.5C224.4 209.7 223.9 209 223.2 208.7Z" fill="black"/>
<path d="M94.9767 166.328L93.4451 170.023L118.665 180.476L120.196 176.781L94.9767 166.328Z" fill="#E7E9EE"/>
<path d="M123.576 197.68L122.045 201.376L133.038 205.932L134.57 202.237L123.576 197.68Z" fill="#E7E9EE"/>
<path d="M177.255 204.451L175.724 208.146L186.717 212.701L188.248 209.006L177.255 204.451Z" fill="#E7E9EE"/>
<path d="M232.9 205.3L233.2 223.3L247.6 214.6L247.3 196.6L125.5 142.1L114.6 123.5L85.6 111.1L71.3 119.8L100.3 132.2L111.2 150.8L232.9 205.3Z" fill="#E7E9EE"/>
<path d="M249.3 196.5C249.3 195.7 248.8 195 248.1 194.7L126.9 140.5L116.3 122.4C116.1 122 115.8 121.7 115.4 121.6L86.4 109.2C85.8 108.9 85.1 109 84.6 109.3L70.3 118C70.2 118.1 70.1 118.2 70 118.2C70 118.2 69.9 118.2 69.9 118.3C69.8 118.4 69.7 118.6 69.6 118.7C69.6 118.7 69.6 118.8 69.5 118.8C69.5 118.9 69.4 119 69.4 119.2C69.4 119.3 69.4 119.3 69.4 119.4C69.4 119.5 69.4 119.6 69.4 119.7V154C69.4 154.8 69.9 155.5 70.6 155.8L232.5 225C232.6 225 232.6 225 232.7 225.1H232.8C232.9 225.1 233.1 225.2 233.3 225.2C233.5 225.2 233.7 225.2 233.9 225.1C234 225.1 234 225 234.1 225C234.2 225 234.3 224.9 234.4 224.9L248.7 216.2C249.3 215.8 249.7 215.2 249.7 214.5L249.3 196.5ZM73.3 122.8L98.9 133.8L109.5 151.8C109.7 152.2 110 152.4 110.4 152.6L231 206.6L231.2 220.2L73.3 152.7V122.8ZM235.2 219.8L234.9 205.3C234.9 205.1 234.9 204.9 234.8 204.7C234.6 204.2 234.2 203.7 233.7 203.5L112.5 149.3L102 131.2C101.8 130.8 101.5 130.5 101.1 130.4L75.7 119.5L85.8 113.3L113.2 125.1L123.8 143.1C124 143.5 124.3 143.7 124.7 143.9L245.3 197.9L245.6 213.5L235.2 219.8Z" fill="black"/>
<path d="M2 154.4L31 166.8L41.9 185.5L163.6 239.9L164 257.9L2 188.7V154.4Z" fill="#E7E9EE"/>
<path d="M163.6 239.9L164 257.9L178.3 249.2L178 231.2L56.2 176.7L45.3 158.1L16.3 145.7L2 154.4L31 166.8L41.9 185.5L163.6 239.9Z" fill="#E7E9EE"/>
<path d="M180 231.2C180 230.4 179.5 229.7 178.8 229.4L57.6 175.2L47 157.1C46.8 156.7 46.5 156.4 46.1 156.3L17.1 143.9C16.5 143.6 15.8 143.7 15.3 144L1.00001 152.7C0.900006 152.8 0.800006 152.9 0.700006 152.9C0.700006 152.9 0.600006 152.9 0.600006 153C0.500006 153.1 0.400006 153.3 0.300006 153.4C0.300006 153.4 0.300006 153.5 0.200006 153.5C0.100006 153.6 0.100006 153.7 0.100006 153.9C0.100006 154 0.100006 154 0.100006 154.1C0.100006 154.2 0.100006 154.3 0.100006 154.4V188.7C0.100006 189.5 0.600006 190.2 1.30001 190.5L163.3 259.7C163.4 259.7 163.4 259.7 163.5 259.8H163.6C163.7 259.8 163.9 259.9 164.1 259.9C164.3 259.9 164.5 259.9 164.7 259.8C164.8 259.8 164.8 259.7 164.9 259.7C165 259.7 165.1 259.6 165.2 259.6L179.5 250.9C180.1 250.5 180.5 249.9 180.5 249.2L180 231.2ZM9.70001 189.8L4.80001 187.7V157.8L9.70001 159.9V189.8ZM18.6 193.6L13.7 191.5V161.6L18.6 163.7V193.6ZM22.6 195.3V165.4L26.2 166.9L27.5 167.5V197.4L22.6 195.3ZM31.5 199.1V171.6L33.5 175L36.4 180V201.2L31.5 199.1ZM40.4 202.9V186.7C40.5 186.8 40.6 186.9 40.7 187C40.8 187.1 41 187.2 41.1 187.3L45.3 189.2V205L40.4 202.9ZM54.2 208.8L49.3 206.7V191L54.2 193.2V208.8ZM58.2 210.6V195L63.1 197.2V212.7L58.2 210.6ZM72 216.5L67.1 214.4V199L72 201.2V216.5ZM80.9 220.3L76 218.2V202.9L78.3 203.9L80.9 205.1V220.3ZM84.9 222V206.9L86.2 207.5L89.8 209.1V224.1L84.9 222ZM98.7 227.9L93.8 225.8V210.9L98.7 213.1V227.9ZM102.7 229.6V214.9L107.6 217.1V231.7L102.7 229.6ZM116.5 235.5L111.6 233.4V218.9L116.5 221.1V235.5ZM120.5 237.2V222.8L125.4 225V239.3L120.5 237.2ZM134.3 243.1L129.4 241V226.8L134.3 229V243.1ZM138.3 244.8V230.8L143.2 233V246.9L138.3 244.8ZM152.3 250.8L147.3 248.6V234.8L152.3 237.1V250.8ZM156.3 252.5V238.9L161.2 241.1V254.6L156.3 252.5ZM165.9 254.4L165.6 239.9C165.6 239.7 165.6 239.5 165.5 239.3C165.3 238.8 164.9 238.3 164.4 238.1L43.3 183.9L32.7 165.8C32.5 165.4 32.2 165.1 31.8 165L6.40001 154.1L16.5 147.9L43.9 159.7L54.5 177.7C54.7 178.1 55 178.3 55.4 178.5L176 232.5L176.3 248.1L165.9 254.4Z" fill="black"/>
<path d="M33.2 73L24.5 159.6L32 155.6L41 70.4L33.2 73Z" fill="#E7E9EE"/>
<path d="M24.5 161.6C24.1 161.6 23.7 161.5 23.4 161.3C22.8 160.9 22.5 160.2 22.5 159.4L31.3 72.8C31.4 72 31.9 71.4 32.6 71.1L40.3 68.5C40.9 68.3 41.7 68.4 42.2 68.8C42.7 69.2 43 69.9 42.9 70.6L33.9 155.8C33.8 156.5 33.4 157 32.8 157.4L25.3 161.4C25.1 161.5 24.8 161.6 24.5 161.6ZM35.1 74.5L26.8 156.1L30.1 154.4L38.6 73.3L35.1 74.5Z" fill="black"/>
<path d="M56.1 70.5L26.9 61.1L25.9 70.4L15.8 156.4L23.5 159.6L33.6 72.8L55 79.6L56.1 70.5Z" fill="#E7E9EE"/>
<path d="M26.9 61.1L36.9 57.1L63.2 65.2L56.1 70.5L26.9 61.1Z" fill="#E7E9EE"/>
<path d="M55 79.6L62 75.4L63.2 65.2L56.1 70.5L55 79.6Z" fill="#E7E9EE"/>
<path d="M65.2 64.8C65.2 64.7 65.2 64.7 65.1 64.6C65.1 64.5 65 64.4 65 64.3C65 64.2 64.9 64.2 64.9 64.1C64.8 64 64.8 63.9 64.7 63.8C64.7 63.7 64.6 63.7 64.5 63.7C64.4 63.6 64.3 63.5 64.2 63.5C64.1 63.5 64.1 63.5 64 63.4C63.9 63.4 63.9 63.3 63.8 63.3L37.5 55.2C37 55 36.6 55 36.1 55.2L26.1 59.2C26.1 59.2 26.1 59.2 26 59.2C25.9 59.2 25.8 59.3 25.7 59.3L25.6 59.4L25.5 59.5C25.4 59.6 25.3 59.7 25.2 59.8C25.2 59.8 25.2 59.8 25.1 59.9C25 60.1 24.9 60.2 24.9 60.4V60.5C24.9 60.6 24.9 60.6 24.9 60.7L23.9 70L13.8 156C13.7 156.9 14.2 157.7 15 158.1L22.7 161.3C22.9 161.4 23.2 161.5 23.5 161.5C23.9 161.5 24.2 161.4 24.5 161.2C25 160.9 25.4 160.3 25.5 159.7L35.3 75.3L54.3 81.3H54.4C54.5 81.3 54.7 81.4 54.8 81.4C54.8 81.4 54.8 81.4 54.9 81.4H55C55.1 81.4 55.2 81.4 55.3 81.4C55.4 81.4 55.4 81.4 55.5 81.4C55.6 81.4 55.7 81.3 55.8 81.3H55.9L63 77.1C63.5 76.8 63.9 76.2 64 75.6L65.2 65.4C65.2 65.2 65.2 65 65.2 64.8ZM37 59.2L58.9 66L55.7 68.4L48.8 66.2L32.8 61L37 59.2ZM34.2 70.9C33.6 70.7 33 70.8 32.5 71.1C32 71.4 31.7 72 31.6 72.5L21.8 156.6L17.9 155L27.8 70.5L28.6 63.7L53.8 71.9L53.6 74L53.2 76.9L34.2 70.9ZM57.5 75.8L57.7 74L58 71.7L60.7 69.7L60.2 74.3L57.5 75.8Z" fill="black"/>
<path d="M103.9 40.4L95.1 127L102.6 123L111.6 37.8L103.9 40.4Z" fill="#E7E9EE"/>
<path d="M95.1 129C94.7 129 94.3 128.9 94 128.7C93.4 128.3 93.1 127.6 93.1 126.8L101.9 40.2C102 39.4 102.5 38.8 103.2 38.5L110.9 35.9C111.5 35.7 112.3 35.8 112.8 36.2C113.3 36.6 113.6 37.3 113.5 38L104.5 123.2C104.4 123.9 104 124.4 103.4 124.8L95.9 128.8C95.8 128.9 95.4 129 95.1 129ZM105.8 41.9L97.5 123.5L100.8 121.8L109.3 40.7L105.8 41.9Z" fill="black"/>
<path d="M126.7 37.9L97.6 28.5L96.5 37.8L86.5 123.7L94.2 127L104.3 40.2L125.6 46.9L126.7 37.9Z" fill="#E7E9EE"/>
<path d="M97.6 28.5L107.5 24.4L133.9 32.6L126.7 37.9L97.6 28.5Z" fill="#E7E9EE"/>
<path d="M125.6 46.9L132.7 42.7L133.9 32.6L126.7 37.9L125.6 46.9Z" fill="#E7E9EE"/>
<path d="M135.8 32.2C135.8 32.1 135.8 32.1 135.7 32C135.7 31.9 135.6 31.8 135.6 31.7C135.6 31.6 135.5 31.6 135.5 31.5C135.4 31.4 135.4 31.3 135.3 31.2C135.3 31.1 135.2 31.1 135.1 31.1C135 31 134.9 30.9 134.8 30.9C134.7 30.9 134.7 30.9 134.6 30.8C134.5 30.8 134.5 30.7 134.4 30.7L108.1 22.6C107.7 22.5 107.2 22.5 106.8 22.7L96.8 26.7C96.8 26.7 96.8 26.7 96.7 26.7C96.6 26.7 96.5 26.8 96.4 26.8L96.3 26.9L96.2 27C96.1 27.1 96 27.2 95.9 27.3C95.9 27.3 95.9 27.3 95.8 27.4C95.7 27.6 95.6 27.7 95.6 27.9V28C95.6 28.1 95.6 28.1 95.6 28.2L94.6 37.5L84.5 123.5C84.4 124.4 84.9 125.2 85.7 125.6L93.4 128.8C93.6 128.9 93.9 129 94.2 129C94.6 129 94.9 128.9 95.2 128.7C95.7 128.4 96.1 127.8 96.2 127.2L106 42.8L125 48.8H125.1C125.2 48.8 125.4 48.9 125.5 48.9C125.5 48.9 125.5 48.9 125.6 48.9H125.7C125.8 48.9 125.9 48.9 126 48.9C126.1 48.9 126.1 48.9 126.2 48.9C126.3 48.9 126.4 48.8 126.5 48.8H126.6L133.7 44.6C134.2 44.3 134.6 43.7 134.7 43.1L135.9 32.9C135.9 32.6 135.9 32.4 135.8 32.2ZM107.6 26.6L129.5 33.4L126.3 35.8L119.4 33.6L103.4 28.4L107.6 26.6ZM104.9 38.3C104.3 38.1 103.7 38.2 103.2 38.5C102.7 38.8 102.4 39.4 102.3 39.9L92.5 124L88.6 122.4L98.5 38L99.3 31.2L124.5 39.4L124.2 41.5L123.8 44.4L104.9 38.3ZM128.1 43.1L128.3 41.5L128.6 39L131.3 37L130.8 41.6L128.1 43.1Z" fill="black"/>
<path d="M124.6 22L104 15.5C103.5 15.4 103 15.4 102.6 15.6L13 57.5C12.3 57.8 11.8 58.6 11.9 59.4C11.9 60.2 12.5 60.9 13.3 61.2L34.6 68.2C34.8 68.3 35 68.3 35.2 68.3C35.5 68.3 35.8 68.2 36.1 68.1L125 25.7C125.7 25.3 126.2 24.6 126.1 23.8C126 23 125.4 22.2 124.6 22Z" fill="black"/>
<path d="M40.7 25.6L90 2L100 29.2L51.1 53L40.7 25.6Z" fill="#E7E9EE"/>
<path d="M78.2 32.2C78 32.2 77.7 32.2 77.5 32.1C77 31.9 76.6 31.5 76.4 30.9L72.2 19.9C71.8 18.9 72.3 17.8 73.2 17.4L84.3 12C84.8 11.8 85.4 11.7 85.9 11.9C86.4 12.1 86.8 12.5 87 13.1L91 24C91.4 25 90.9 26 90 26.5L79.1 32C78.8 32.1 78.5 32.2 78.2 32.2ZM76.5 20.1L79.2 27.3L86.6 23.6L84 16.5L76.5 20.1Z" fill="black"/>
<path d="M65.8206 23.3462L50.1445 30.4258L51.7909 34.0714L67.467 26.9918L65.8206 23.3462Z" fill="black"/>
<path d="M64.2369 32.5319L53.3001 37.4711L54.9465 41.1167L65.8833 36.1775L64.2369 32.5319Z" fill="black"/>
<path d="M51.1 53L32.7 49.3L40.7 25.6L51.1 53Z" fill="#E7E9EE"/>
<path d="M101.9 28.5L91.8 1.3C91.6 0.799997 91.2 0.399997 90.7 0.099997C90.2 -0.100003 89.6 -0.100003 89.1 0.099997L39.8 23.8C39.7 23.9 39.6 23.9 39.5 24C39.4 24.1 39.2 24.2 39.1 24.4C39.1 24.4 39.1 24.5 39 24.5C38.9 24.6 38.8 24.8 38.8 25L30.8 48.7C30.6 49.2 30.7 49.8 31 50.3C31.3 50.8 31.8 51.1 32.3 51.3L50.7 55C50.8 55 51 55 51.1 55C51.2 55 51.4 55 51.5 55H51.6C51.7 55 51.8 54.9 51.9 54.9L100.9 31C101.8 30.5 102.3 29.5 101.9 28.5ZM40.8 31.5L47.9 50.3L35.3 47.7L40.8 31.5ZM52.2 50.3L47.7 38.4L43.2 26.6L88.8 4.8L97.5 28.2L52.2 50.3Z" fill="black"/>
</g>
<defs>
<clipPath id="clip0_121_2596">
<rect width="249.6" height="259.9" fill="white"/>
</clipPath>
</defs>
</svg>
