<svg width="235" height="200" viewBox="0 0 235 200" fill="none" xmlns="http://www.w3.org/2000/svg">
<g clip-path="url(#clip0_121_2543)">
<path d="M228.406 144.817C238.463 106.23 213.341 66.2775 172.296 55.5803C131.25 44.8831 89.8239 67.4922 79.7674 106.079C69.711 144.666 94.8325 184.619 135.878 195.316C176.923 206.013 218.35 183.404 228.406 144.817Z" fill="#E7E9EE"/>
<path d="M221.3 88.7C210.4 71.4 193.2 59 172.9 53.7C152.6 48.4 131.5 50.9 113.5 60.6C95.5001 70.4 82.9001 86.4 77.9001 105.6C72.9001 124.8 76.1001 144.9 87.0001 162.2C97.9001 179.5 115.1 191.9 135.4 197.2C142.4 199 149.5 199.9 156.4 199.9C190.8 199.9 221.8 178.2 230.4 145.3C235.4 126.1 232.2 106 221.3 88.7ZM226.5 144.3C225.2 149.1 223.5 153.7 221.3 158L221.9 153.3C220.4 155.9 218.8 158.4 217 160.7L216.4 166.1C214.6 168.6 212.7 170.9 210.6 173.1L211.3 167.2C209.8 168.7 208.3 170.1 206.8 171.4L206.1 177L206 177.5C204.3 179 202.4 180.5 200.5 181.9L200.6 180.8L201.2 175.6C199.8 176.6 198.3 177.5 196.8 178.4L196.2 183.3L196 184.8C194.3 185.9 192.5 186.8 190.7 187.8L190.9 185.9L191.4 181.2C190 181.9 188.6 182.5 187.2 183.1L186.7 187.6L186.4 189.8C184.7 190.5 183 191.2 181.2 191.8L181.5 189.4L182 185.1C180.6 185.6 179.2 186 177.8 186.3L177.3 190.5L177 193.1C175.3 193.6 173.6 194 171.9 194.3L172.2 191.6L172.7 187.4C171.3 187.7 170 187.9 168.6 188.1L168.1 192.2L168 195C166.3 195.3 164.7 195.5 163 195.6L163.3 192.6L163.8 188.6C162.5 188.7 161.1 188.8 159.8 188.8L159.3 192.8L158.9 195.9C157.3 196 155.6 195.9 154 195.9L154.4 192.8L154.9 188.8C153.6 188.8 152.2 188.7 150.9 188.5L150.4 192.5L150 195.7C148.4 195.6 146.8 195.4 145.1 195.1L145.5 191.8L146 187.8C144.7 187.6 143.4 187.4 142.1 187.1L141.6 191.1L141.2 194.4C139.6 194.1 138 193.7 136.4 193.3L136.8 190L137.3 186C136 185.6 134.7 185.2 133.4 184.8L132.9 188.9L132.5 192.3C130.9 191.8 129.3 191.2 127.8 190.6L128.2 187.2L128.7 183.1C127.4 182.6 126.1 182 124.9 181.5L124.4 185.7L124 189.1C122.4 188.4 120.8 187.7 119.3 186.9L119.7 183.5L120.2 179.2C118.9 178.5 117.7 177.8 116.4 177L115.9 181.3L115.5 184.6C113.9 183.7 112.4 182.7 110.9 181.6L111.3 178.4L111.8 173.9C110.5 173 109.3 172 108.1 171L107.6 175.7L107.2 178.9C105.7 177.7 104.2 176.4 102.7 175L103.1 172L103.7 167.1C102.5 165.9 101.3 164.7 100.1 163.4L99.5001 168.6L99.2001 171.5C97.7001 169.9 96.2001 168.2 94.9001 166.4L95.2001 163.8L95.9001 158.2C94.7001 156.6 93.5001 154.9 92.5001 153.2L91.8001 159.3L91.5001 161.6C91.2001 161.1 90.9001 160.7 90.6001 160.2C80.3001 143.8 77.2001 124.8 81.9001 106.7C86.6001 88.6 98.6001 73.5 115.6 64.2C126.8 58.1 139.2 55 151.9 55C158.6 55 165.4 55.9 172 57.6C191.4 62.6 207.7 74.5 218 90.9C228.2 107.2 231.3 126.2 226.5 144.3Z" fill="black"/>
<path d="M230.274 137.667C240.331 99.0803 215.209 59.1276 174.164 48.4304C133.118 37.7332 91.6918 60.3424 81.6354 98.9294C71.5789 137.516 96.7004 177.469 137.746 188.166C178.791 198.863 220.218 176.254 230.274 137.667Z" fill="#E7E9EE"/>
<path d="M223.1 81.6C212.2 64.3 195 51.9 174.7 46.6C132.6 35.6 90 58.9 79.7 98.5C74.7 117.7 77.9 137.8 88.8 155.1C99.7 172.4 116.9 184.8 137.2 190.1C144.2 191.9 151.3 192.8 158.2 192.8C192.6 192.8 223.6 171.1 232.2 138.2C237.3 119 234 98.9 223.1 81.6ZM138.3 186.3C118.9 181.3 102.6 169.4 92.3 153C82 136.6 78.9 117.6 83.6 99.5C91.7 68.3 121.1 47.9 153.7 47.9C160.3 47.9 167 48.7 173.7 50.5C193.1 55.5 209.4 67.4 219.7 83.8C230 100.2 233.1 119.2 228.4 137.3C218.6 174.7 178.2 196.7 138.3 186.3Z" fill="black"/>
<path d="M172 57C154.6 52.5 136.6 54.6 121.3 62.9C105.9 71.3 95.1001 84.9 90.9001 101.3C82.1001 135.1 104.1 170.3 140.1 179.6C146.1 181.2 152.1 181.9 158 181.9C187.4 181.9 213.9 163.4 221.2 135.2C229.9 101.5 207.9 66.4 172 57Z" fill="black"/>
<path d="M132.6 113.5C131.9 112.8 131.1 112.1 130.2 111.5C129.4 111 128.5 110.5 127.7 110.1L129 105.2C129.5 105.4 130 105.6 130.4 105.9C131.5 106.5 132.5 107.3 133.5 108.3L137 103.6C136 102.6 134.7 101.7 133.2 100.9C132.3 100.4 131.3 100 130.3 99.7L131.3 95.9L127 94.8L126 98.7C124.6 98.5 123.3 98.5 122.1 98.7C120.3 99 118.8 99.7 117.7 100.7C116.6 101.7 115.8 102.9 115.4 104.4C115.1 105.7 115 106.9 115.3 107.9C115.6 108.9 116.1 109.8 116.8 110.5C117.5 111.2 118.3 111.9 119.2 112.5C120.1 113.1 121 113.6 122 114.1L120.8 118.8C119.9 118.4 119 118 118.1 117.5C116.8 116.7 115.6 115.7 114.7 114.7L111 119.3C112 120.4 113.3 121.5 115.1 122.5C116.4 123.3 117.8 123.9 119.3 124.4L118.3 128.2L122.6 129.3L123.6 125.3C124.9 125.5 126.1 125.5 127.2 125.3C129 125 130.5 124.3 131.6 123.3C132.7 122.3 133.5 121.1 133.9 119.6C134.2 118.3 134.3 117.1 134 116.2C133.7 115.1 133.3 114.2 132.6 113.5ZM122.9 107.2C122.5 106.7 122.3 106.2 122.5 105.7C122.6 105.3 122.8 104.9 123.2 104.7C123.5 104.4 124 104.3 124.6 104.2L123.7 107.8C123.4 107.7 123.1 107.4 122.9 107.2ZM126.2 119.2C125.9 119.4 125.6 119.5 125.1 119.5L125.9 116.2C126.1 116.3 126.2 116.5 126.4 116.6C126.8 117.1 127 117.6 126.8 118.2C126.8 118.7 126.5 119 126.2 119.2Z" fill="#E7E9EE"/>
<path d="M141.733 103.056L135.252 127.926L142.316 129.767L148.797 104.897L141.733 103.056Z" fill="#E7E9EE"/>
<path d="M167 123.8L159.5 107.7L153.7 106.2L147.2 131L154.1 132.8L157.6 119.6L165.1 135.7L170.9 137.2L177.4 112.3L170.5 110.5L167 123.8Z" fill="#E7E9EE"/>
<path d="M197.7 132.7C197.4 131.7 196.9 130.8 196.2 130.1C195.5 129.4 194.7 128.7 193.8 128.1C192.9 127.5 191.9 127 191 126.5C190 126 189.2 125.6 188.4 125.2C187.6 124.8 187 124.3 186.6 123.9C186.2 123.4 186 122.9 186.2 122.4C186.3 122 186.5 121.6 186.9 121.4C187.2 121.1 187.7 121 188.4 120.9C189 120.9 189.9 121 190.8 121.2C191.9 121.5 193 121.9 194 122.6C195.1 123.2 196.1 124 197.1 125L200.6 120.3C199.6 119.3 198.3 118.4 196.8 117.6C195.3 116.8 193.8 116.2 192.1 115.8C189.7 115.2 187.5 115 185.7 115.3C183.9 115.6 182.4 116.3 181.3 117.3C180.2 118.3 179.4 119.5 179 121C178.7 122.3 178.6 123.5 178.9 124.5C179.2 125.5 179.7 126.4 180.4 127.1C181.1 127.8 181.9 128.5 182.8 129.1C183.7 129.7 184.7 130.2 185.6 130.7C186.5 131.2 187.4 131.6 188.2 132.1C189 132.5 189.6 133 190 133.4C190.4 133.9 190.6 134.4 190.4 135C190.3 135.4 190.1 135.7 189.7 135.9C189.4 136.1 188.9 136.2 188.2 136.3C187.6 136.3 186.8 136.2 185.8 136C184.4 135.6 183 135 181.6 134.2C180.3 133.4 179.1 132.4 178.2 131.4L174.5 136C175.5 137.1 176.8 138.2 178.6 139.2C180.3 140.2 182.2 141 184.3 141.5C186.8 142.1 188.9 142.3 190.7 142C192.5 141.7 194 141 195.1 140C196.2 139 197 137.8 197.4 136.3C197.9 134.8 197.9 133.7 197.7 132.7Z" fill="#E7E9EE"/>
<path d="M101.485 150.809C142.089 138.546 165.66 97.6612 154.132 59.4889C142.604 21.3166 100.343 0.312366 59.7385 12.5747C19.1342 24.837 -4.43694 65.7223 7.09091 103.895C18.6188 142.067 60.8802 163.071 101.485 150.809Z" fill="#E7E9EE"/>
<path d="M156 58.9C144.2 19.7 100.7 -1.90001 59.1 10.7C39 16.8 22.3 29.9 12.1 47.6C1.90004 65.3 -0.599965 85.6 5.10004 104.6C10.8 123.6 24.1 139.1 42.4 148.2C53.4 153.7 65.5 156.5 77.8 156.5C85.9 156.5 94 155.3 102 152.9C143.6 140.1 167.9 98 156 58.9ZM150.4 103.6L150.3 102.3L149.5 93.5C148.6 96.3 147.5 99 146.3 101.6L147 108.9L147.2 111C145.9 113.5 144.5 115.8 142.9 118.1L142.7 115.5L142.1 109.2C141 111 139.8 112.7 138.6 114.4L139.1 120.1L139.4 123C138 124.8 136.5 126.5 135 128.1L134.7 125L134.2 119.7C133 121 131.8 122.2 130.5 123.5L131 128.5L131.3 131.7C129.8 133 128.3 134.3 126.7 135.6L126.4 132.3L125.9 127.6C124.7 128.6 123.4 129.5 122.1 130.5L122.5 135.1L122.8 138.5C121.3 139.5 119.8 140.5 118.2 141.5L117.9 138.1L117.5 133.7C116.3 134.5 115 135.2 113.7 135.9L114.1 140.2L114.4 143.6C112.9 144.4 111.3 145.1 109.7 145.8L109.4 142.4L109 138C107.7 138.6 106.4 139.1 105.1 139.6L105.5 143.7L105.8 147.1C104.2 147.7 102.7 148.2 101 148.7L100.7 145.3L100.3 141.2C99.8 141.4 99.2 141.5 98.7 141.7C97.9 141.9 97.2 142.2 96.4 142.4L96.8 146.4L97.1 149.8C95.5 150.2 93.9 150.5 92.3 150.8L92 147.5L91.6 143.5C90.3 143.8 89 144 87.6 144.2L88 148.2L88.3 151.4C86.7 151.6 85 151.8 83.4 151.9L83.1 148.7L82.7 144.7C81.4 144.8 80 144.9 78.7 145L79.1 149L79.4 152.1C77.8 152.1 76.1 152.1 74.5 152L74.2 149L73.8 145C72.5 145 71.1 144.9 69.8 144.8L70.2 148.8L70.5 151.7C68.8 151.5 67.2 151.3 65.5 151.1L65.2 148.4L64.8 144.3C63.4 144.1 62.1 143.9 60.7 143.6L61.1 147.7L61.3 150.3C59.6 149.9 57.9 149.5 56.3 149L56.1 146.6L55.7 142.4C54.3 142 52.9 141.6 51.6 141.2L52 145.5L52.2 147.7C50.5 147.1 48.8 146.4 47.1 145.7L46.9 143.8L46.5 139.3C45.1 138.7 43.7 138.1 42.3 137.4L42.7 142L42.9 143.6C41.1 142.7 39.4 141.7 37.7 140.6L37.6 139.4L37.1 134.5C35.6 133.6 34.2 132.7 32.8 131.7L33.3 136.8L33.4 137.6C31.5 136.2 29.8 134.8 28.1 133.2V133.1L27.6 127.5C26.1 126.2 24.6 124.8 23.2 123.4L23.7 128.8C17 121.5 12 112.8 9.00004 103.1C3.60004 85.2 5.90004 66.1 15.6 49.3C25.3 32.5 41.2 20.1 60.3 14.3C67.9 12 75.6 10.9 83.2 10.9C114.6 10.9 143.2 30 152.2 59.9C156.6 74.7 155.7 89.9 150.4 103.6Z" fill="black"/>
<path d="M99.3629 143.705C139.967 131.443 163.538 90.5577 152.01 52.3854C140.483 14.2131 98.2212 -6.79104 57.6168 5.47127C17.0125 17.7336 -6.55864 58.6189 4.96921 96.7912C16.4971 134.964 58.7585 155.968 99.3629 143.705Z" fill="#E7E9EE"/>
<path d="M153.9 51.8C148.2 32.8 134.9 17.3 116.6 8.19999C98.3 -0.800007 77.1 -2.50001 57 3.59999C15.4 16.2 -8.8 58.3 3 97.4C12.5 129 42.7 149.2 75.9 149.2C83.8 149.2 91.9 148 99.9 145.6C120 139.5 136.7 126.4 146.9 108.7C157.2 91.1 159.6 70.8 153.9 51.8ZM143.5 106.8C133.8 123.6 117.9 136 98.8 141.8C59.3 153.7 18 133.3 6.8 96.3C-4.4 59.2 18.7 19.4 58.2 7.39999C65.8 5.09999 73.5 3.99999 81.2 3.99999C92.9 3.99999 104.4 6.59999 114.8 11.8C132.1 20.4 144.7 35 150.1 53C155.5 70.9 153.2 90 143.5 106.8Z" fill="black"/>
<path d="M142.7 55.2C132.6 21.9 95.6001 3.39999 60.2001 14.1C24.8001 24.8 4.2001 60.6 14.2001 94C19.1001 110.2 30.4001 123.4 46.0001 131.1C55.4001 135.8 65.7001 138.1 76.2001 138.1C83.1001 138.1 90.0001 137.1 96.8001 135C113.9 129.8 128.2 118.7 136.8 103.6C145.5 88.6 147.6 71.4 142.7 55.2Z" fill="black"/>
<path d="M53.8 70.9C53 70.3 52.1 69.7 51.1 69.3C50.2 68.9 49.3 68.5 48.4 68.2L49 63.2C49.5 63.3 50 63.5 50.5 63.7C51.7 64.2 52.8 64.8 53.9 65.6L56.8 60.5C55.6 59.6 54.2 58.9 52.7 58.3C51.7 57.9 50.7 57.7 49.7 57.5L50.2 53.6L45.8 53L45.3 57C43.9 57 42.6 57.2 41.4 57.5C39.6 58.1 38.3 58.9 37.3 60C36.3 61.1 35.7 62.5 35.6 64C35.4 65.4 35.6 66.5 36 67.5C36.4 68.5 37 69.2 37.8 69.9C38.6 70.5 39.5 71.1 40.5 71.6C41.5 72.1 42.5 72.5 43.5 72.8L42.9 77.7C41.9 77.5 41 77.2 40.1 76.7C38.7 76 37.4 75.3 36.4 74.4L33.4 79.4C34.5 80.4 36 81.2 37.9 82C39.3 82.6 40.8 83 42.3 83.3L41.8 87.2L46.2 87.7L46.7 83.6C48 83.6 49.2 83.4 50.3 83.1C52.1 82.5 53.4 81.7 54.4 80.5C55.4 79.3 56 78 56.1 76.5C56.3 75.2 56.1 74 55.7 73.1C55.2 72.3 54.6 71.5 53.8 70.9ZM43.4 66C42.9 65.6 42.7 65.1 42.8 64.6C42.9 64.2 43 63.8 43.3 63.5C43.6 63.2 44 63 44.6 62.9L44.2 66.6C43.9 66.4 43.6 66.2 43.4 66ZM48.3 77.4C48.1 77.6 47.7 77.8 47.3 77.9L47.7 74.6C47.9 74.7 48.1 74.8 48.2 75C48.7 75.4 48.9 75.9 48.8 76.5C48.8 76.8 48.6 77.1 48.3 77.4Z" fill="#E7E9EE"/>
<path d="M61.3994 59.2402L58.3771 84.7629L65.6267 85.6214L68.649 60.0987L61.3994 59.2402Z" fill="#E7E9EE"/>
<path d="M89.4 76.4L79.7 61.4L73.8 60.7L70.8 86.3L77.8 87.1L79.4 73.5L89.1 88.4L95 89.1L98 63.6L91 62.8L89.4 76.4Z" fill="#E7E9EE"/>
<path d="M120.9 81C120.5 80.1 119.9 79.3 119.1 78.6C118.3 78 117.4 77.4 116.4 77C115.4 76.5 114.4 76.2 113.4 75.8C112.4 75.5 111.5 75.1 110.6 74.8C109.8 74.5 109.1 74.1 108.6 73.8C108.1 73.4 107.9 72.9 108 72.4C108.1 72 108.2 71.6 108.5 71.3C108.8 71 109.3 70.8 109.9 70.6C110.5 70.4 111.3 70.5 112.3 70.6C113.4 70.7 114.6 71 115.7 71.5C116.9 72 118 72.6 119.1 73.4L122 68.3C120.8 67.4 119.4 66.7 117.9 66.1C116.3 65.5 114.7 65.1 113 65C110.5 64.7 108.4 64.8 106.6 65.4C104.8 66 103.5 66.8 102.5 67.9C101.5 69 100.9 70.4 100.8 71.9C100.6 73.3 100.8 74.4 101.2 75.4C101.6 76.4 102.2 77.1 103 77.8C103.8 78.4 104.7 79 105.7 79.5C106.7 80 107.7 80.4 108.7 80.7C109.7 81 110.6 81.4 111.4 81.7C112.2 82 112.9 82.4 113.4 82.8C113.9 83.2 114.1 83.7 114 84.3C114 84.7 113.8 85.1 113.5 85.3C113.2 85.6 112.7 85.8 112.1 85.9C111.5 86 110.7 86 109.7 85.9C108.2 85.7 106.8 85.3 105.3 84.7C103.9 84 102.6 83.3 101.6 82.4L98.6 87.4C99.7 88.4 101.2 89.2 103.1 90C105 90.8 106.9 91.3 109 91.5C111.5 91.8 113.7 91.7 115.4 91.1C117.2 90.5 118.5 89.7 119.5 88.5C120.5 87.3 121.1 86 121.2 84.5C121.5 83.1 121.3 81.9 120.9 81Z" fill="#E7E9EE"/>
</g>
<defs>
<clipPath id="clip0_121_2543">
<rect width="234.5" height="199.9" fill="white"/>
</clipPath>
</defs>
</svg>
