<svg width="69" height="12" viewBox="0 0 69 12" fill="none" xmlns="http://www.w3.org/2000/svg">
<path d="M6.3705 11.352V5.44799L6.2425 3.49599L7.2185 5.01599L11.6665 11.352H13.3305V0.631989H11.5225V6.51999L11.6345 8.55199L10.5785 6.87199L6.2425 0.631989H4.5625V11.352H6.3705Z" fill="white"/>
<path d="M19.931 11.512C22.107 11.512 23.739 10.392 23.739 8.45601C23.739 6.40801 22.203 5.73601 20.491 5.32001L19.291 5.03201C18.123 4.74401 17.387 4.40801 17.387 3.46401C17.387 2.64801 18.123 2.16801 19.147 2.16801C20.459 2.16801 21.611 2.74401 22.203 4.07201L23.563 2.77601C22.795 1.30401 21.227 0.488007 19.259 0.488007C17.243 0.488007 15.499 1.57601 15.499 3.59201C15.499 5.62401 17.115 6.31201 18.635 6.63201L19.643 6.85601C21.035 7.16001 21.899 7.44801 21.899 8.48801C21.899 9.46401 21.035 9.84801 19.963 9.84801C18.651 9.84801 17.035 9.24001 16.459 7.67201L15.179 8.96801C16.011 10.776 17.883 11.512 19.931 11.512Z" fill="white"/>
<path d="M29.7249 11.512C32.6529 11.512 34.0129 10.024 34.0129 6.77599V0.631989H32.2209V6.79199C32.2209 8.91999 31.5329 9.78399 29.7409 9.78399C27.9809 9.78399 27.2609 8.91999 27.2609 6.79199V0.631989H25.4689V6.77599C25.4689 10.024 26.8609 11.512 29.7249 11.512Z" fill="white"/>
<path d="M43.9523 11.352V9.75199H38.4643V0.631989H36.6562V11.352H43.9523Z" fill="white"/>
<path d="M47.3471 11.352V0.631989H45.5391V11.352H47.3471Z" fill="white"/>
<path d="M51.5705 11.352V5.44799L51.4425 3.49599L52.4185 5.01599L56.8665 11.352H58.5305V0.631989H56.7225V6.51999L56.8345 8.55199L55.7785 6.87199L51.4425 0.631989H49.7625V11.352H51.5705Z" fill="white"/>
<path d="M68.7669 11.352V9.75199H62.9909V6.67999H67.7749V5.07999H62.9909V2.23199H68.7669V0.631989H61.1829V11.352H68.7669Z" fill="white"/>
<path d="M1.808 11.352V0.631989H0V11.352H1.808Z" fill="white"/>
</svg>
