<svg width="270" height="181" viewBox="0 0 270 181" fill="none" xmlns="http://www.w3.org/2000/svg">
<g clip-path="url(#clip0_121_2575)">
<path d="M30.4 2L227.8 51.5L267.3 101.5L73.4 55L30.4 2Z" fill="#E7E9EE"/>
<path d="M2 109.6L205.6 159.7L267.3 101.5V117.4L207.6 178.9L2 122.8V109.6Z" fill="#E7E9EE"/>
<path d="M268.1 99.7C267.4 99.4 266.5 99.5 265.9 100.1L205 157.5L2.5 107.7C1.9 107.6 1.3 107.7 0.8 108.1C0.3 108.5 0 109.1 0 109.7V122.9C0 123.8 0.6 124.6 1.5 124.8L207.1 180.9C207.3 180.9 207.5 181 207.6 181C208.1 181 208.7 180.8 209 180.4L268.7 118.8C269.1 118.4 269.3 117.9 269.3 117.4V101.6C269.3 100.7 268.8 100 268.1 99.7ZM225.7 143.5L230.6 138.9V152.3L225.7 157.4V143.5ZM221.7 161.5L216.8 166.6V151.9L221.7 147.3V161.5ZM234.6 135.1L239.5 130.5V143.2L234.6 148.3V135.1ZM243.5 126.7L248.4 122.1V134L243.5 139.1V126.7ZM252.4 118.3L257.3 113.7V124.8L252.4 129.9V118.3ZM20.6 116.2L25.5 117.4V127.1L20.6 125.8V116.2ZM16.6 124.7L11.7 123.4V114.1L16.6 115.3V124.7ZM29.5 118.4L34.4 119.6V129.5L29.5 128.2V118.4ZM38.4 120.6L43.3 121.8V132L38.4 130.7V120.6ZM47.3 122.8L52.2 124V134.4L47.3 133.1V122.8ZM56.2 125L61.1 126.2V136.8L56.2 135.5V125ZM65.1 127.2L70 128.4V139.3L65.1 138V127.2ZM74 129.4L78.9 130.6V141.7L74 140.4V129.4ZM82.9 131.6L87.8 132.8V144.2L82.9 142.9V131.6ZM91.8 133.8L97.1 135.1V146.7L91.8 145.3V133.8ZM101.1 136L106 137.2V149.1L101.1 147.8V136ZM110 138.2L114.9 139.4V151.5L110 150.2V138.2ZM118.9 140.4L123.8 141.6V154L118.9 152.7V140.4ZM127.8 142.6L132.7 143.8V156.4L127.8 155.1V142.6ZM136.7 144.8L141.6 146V158.8L136.7 157.5V144.8ZM145.6 147L150.5 148.2V161.3L145.6 160V147ZM154.5 149.2L159.4 150.4V163.7L154.5 162.4V149.2ZM163.4 151.4L168.3 152.6V166.1L163.4 164.8V151.4ZM172.3 153.5L177.2 154.7V168.5L172.3 167.2V153.5ZM181.2 155.7L186.1 156.9V170.9L181.2 169.6V155.7ZM190.1 157.9L195 159.1V173.4L190.1 172.1V157.9ZM199 160.1L203.9 161.3V175.8L199 174.5V160.1ZM4 112.2L7.7 113.1V122.3L4 121.3V112.2ZM207.9 175.7V160.3L212.8 155.7V170.7L207.9 175.7ZM265.3 116.5L261.3 120.6V109.9L265.3 106.2V116.5Z" fill="black"/>
<path d="M2 109.6L206.9 163.5L267.3 101.5L73.4 55L2 109.6Z" fill="#E7E9EE"/>
<path d="M206.9 165.5C206.7 165.5 206.6 165.5 206.4 165.4L1.5 111.5C0.799998 111.3 0.199998 110.7 -2.06009e-06 110C-0.200002 109.3 0.0999979 108.5 0.699998 108L72.1 53.4C72.6 53 73.2 52.9 73.8 53L267.7 99.5C268.4 99.7 269 100.2 269.2 100.9C269.4 101.6 269.2 102.3 268.7 102.9L208.3 164.9C208 165.3 207.4 165.5 206.9 165.5ZM6.5 108.7L206.3 161.3L263.4 102.6L73.8 57.2L6.5 108.7Z" fill="black"/>
<path d="M75.1 63.2L32.5 94.4L216.5 142.5L250 105.4L75.1 63.2Z" fill="black"/>
<path d="M34.4 107.1L191.3 148.1L223.4 112.9L73.6 76.8L34.4 107.1Z" fill="#E7E9EE"/>
<path d="M208.852 163.418L204.856 163.596L205.54 178.981L209.536 178.803L208.852 163.418Z" fill="black"/>
<path d="M268.9 100.3L229.4 50.3C229.1 50 228.7 49.7 228.3 49.6L30.9 0.0999933C30.1 -0.100007 29.2 0.199993 28.7 0.999993C28.2 1.69999 28.3 2.69999 28.8 3.29999L71.8 56.3C72.1 56.6 72.5 56.9 72.9 57L266.8 103.5C267 103.5 267.1 103.6 267.3 103.6C268 103.6 268.6 103.3 269 102.7C269.4 101.9 269.4 101 268.9 100.3ZM74.5 53.2L58.7 33.7L109.3 45.9L108.4 41.7L54.6 28.7L35.7 5.39999L226.6 53.3L242.2 73L186 59.5L187 63.8L246.1 78L262.1 98.3L74.5 53.2Z" fill="black"/>
<path d="M225.3 112.4C225.1 111.7 224.5 111.2 223.9 111L74.1 74.8C73.5 74.7 72.9 74.8 72.4 75.2L66.8 79.5L63.2 78.6L62.3 82.5L62.8 82.6L33.2 105.5C32.6 106 32.3 106.7 32.5 107.5C32.7 108.2 33.2 108.8 34 109L190.8 150C191 150 191.1 150.1 191.3 150.1C191.9 150.1 192.4 149.9 192.8 149.4L213.5 126.8L220 128.4L220.9 124.5L216.5 123.4L219.1 120.5L221.9 121.2L222.8 117.3L222.1 117.1L224.8 114.2C225.3 113.8 225.5 113 225.3 112.4ZM190.6 145.8L38.9 106.2L60.4 89.6V89.7L209 125.7L190.6 145.8ZM212 122.4L64.3 86.6L67.8 83.9L214.7 119.5L212 122.4ZM71.8 80.7L74.1 78.9L219.6 114L217.7 116L71.8 80.7Z" fill="black"/>
<path d="M135.4 45.4C134.5 43.9 133.5 42.6 132.3 41.3C131.1 40.1 129.8 39 128.4 38.1C127 37.2 125.5 36.6 124 36.2C122.5 35.8 121.2 35.7 120.1 35.9C119 36.1 118.1 36.6 117.4 37.4C116.7 38.2 116.3 39.1 116.2 40.3C116.1 41.5 116.2 42.9 116.6 44.5C117 46.1 117.7 47.6 118.6 49.1C119.5 50.6 120.5 51.9 121.7 53.2C122.9 54.4 124.2 55.5 125.6 56.4C127 57.3 128.5 57.9 130 58.3C131.5 58.7 132.8 58.8 133.9 58.6C135 58.4 135.9 57.9 136.5 57.1C137.2 56.3 137.6 55.4 137.7 54.1C137.8 52.9 137.7 51.5 137.3 49.9C137 48.4 136.3 46.9 135.4 45.4ZM131 52C130.7 52.4 130.4 52.6 130 52.7C129.6 52.8 129.1 52.8 128.5 52.6C127.9 52.4 127.4 52.2 126.8 51.8C126.2 51.4 125.7 51 125.2 50.4C124.7 49.8 124.3 49.2 123.9 48.5C123.5 47.8 123.2 47 123 46.2C122.8 45.4 122.7 44.7 122.7 44.1C122.7 43.5 122.9 43 123.1 42.7C123.4 42.3 123.7 42.1 124.1 42C124.5 41.9 125 41.9 125.6 42.1C126.2 42.3 126.8 42.5 127.3 42.9C127.9 43.3 128.4 43.7 128.9 44.3C129.4 44.9 129.8 45.5 130.2 46.2C130.6 46.9 130.9 47.7 131.1 48.5C131.3 49.3 131.4 50 131.4 50.6C131.4 51.2 131.3 51.6 131 52Z" fill="black"/>
<path d="M153 58.4C152.5 58.7 151.8 58.7 151 58.5C150.4 58.3 149.7 58.1 149.1 57.7C148.5 57.3 148 56.9 147.5 56.3C147 55.7 146.5 55.1 146.2 54.4C145.8 53.7 145.5 52.9 145.3 52.1C145.1 51.3 145 50.6 145 50C145 49.4 145.2 48.9 145.4 48.6C145.6 48.2 146 48 146.5 47.9C147 47.8 147.5 47.8 148.2 48C149 48.2 149.8 48.6 150.6 49.2C151.4 49.8 152.1 50.6 152.9 51.5L155.7 48.5C154.4 46.9 153 45.5 151.4 44.5C149.8 43.4 148.1 42.6 146.3 42.2C144.8 41.8 143.5 41.7 142.4 41.9C141.3 42.1 140.4 42.6 139.8 43.3C139.2 44 138.8 45 138.6 46.2C138.5 47.4 138.6 48.8 139.1 50.5C139.5 52.1 140.2 53.7 141.1 55.2C142 56.7 143 58 144.2 59.3C145.4 60.5 146.7 61.6 148.1 62.4C149.5 63.3 150.9 63.9 152.4 64.3C154.2 64.8 155.7 64.8 156.9 64.4C158.1 64 159 63.3 159.5 62.2L154.5 57.2C154 57.7 153.5 58.1 153 58.4Z" fill="black"/>
<path d="M178.7 65.2C178.4 64 177.8 62.8 177 61.8C176.2 60.8 175.2 59.9 174 59.2C173.9 59.2 173.9 59.1 173.8 59.1C174.4 58.8 174.9 58.4 175.1 57.9C175.4 57.2 175.4 56.3 175.1 55.2C174.7 53.6 173.7 52.1 172.2 50.8C170.7 49.4 168.7 48.4 166.1 47.8L156.3 45.2L162.1 66.4L172.5 69.1C175 69.8 176.8 69.8 177.9 69.1C178.9 68.3 179.2 67 178.7 65.2ZM166.7 52.5C167.4 52.7 167.9 52.9 168.3 53.3C168.7 53.6 169 54.1 169.1 54.6C169.2 55.1 169.2 55.4 168.9 55.6C168.7 55.8 168.2 55.8 167.5 55.6L164.6 54.8L163.7 51.7L166.7 52.5ZM172 63.9C171.7 64.1 171.3 64.1 170.6 63.9L166.9 62.9L166 59.6L169.7 60.6C170.4 60.8 170.9 61.1 171.4 61.4C171.8 61.8 172.1 62.2 172.3 62.8C172.3 63.3 172.3 63.7 172 63.9Z" fill="black"/>
</g>
<defs>
<clipPath id="clip0_121_2575">
<rect width="269.3" height="180.9" fill="white"/>
</clipPath>
</defs>
</svg>
